<svg width="650" height="480" viewBox="0 0 650 480" fill="none" xmlns="http://www.w3.org/2000/svg"><g clip-path="url(#a)"><g clip-path="url(#b)"><path d="M247.593 415.675C235.253 414.851 225.267 404.909 224.362 392.567L201.796 83.9893C200.79 70.2508 211.158 58.2412 224.897 57.2352L398.461 44.5481C399.63 44.4645 400.81 44.4624 401.985 44.5408C414.324 45.3645 424.31 55.3068 425.215 67.6488L447.781 376.227C448.274 382.885 446.131 389.335 441.769 394.393C437.408 399.451 431.339 402.488 424.681 402.981L251.116 415.668C249.947 415.751 248.767 415.753 247.593 415.675ZM320.935 65.714C313.953 65.248 307.878 70.547 307.411 77.5454C306.944 84.5438 312.244 90.602 319.243 91.0692C326.241 91.5363 332.299 86.2362 332.766 79.2378C333.233 72.2394 327.933 66.1812 320.935 65.714Z" fill="#78ACFC"/><path d="M401.931 45.3455C413.869 46.1423 423.537 55.7564 424.404 67.708L446.97 376.286C447.445 382.733 445.38 388.962 441.16 393.852C436.939 398.741 431.069 401.694 424.622 402.169L251.058 414.856C249.921 414.942 248.773 414.946 247.647 414.871C235.71 414.074 226.041 404.46 225.174 392.508L202.608 83.9306C201.638 70.6308 211.672 59.0191 224.972 58.0484L398.537 45.3613C399.674 45.2756 400.821 45.2714 401.947 45.3466M319.206 91.8588C326.639 92.3549 333.092 86.7095 333.588 79.2767C334.084 71.8439 328.439 65.391 321.006 64.8948C313.573 64.3987 307.121 70.0441 306.624 77.4769C306.128 84.9097 311.774 91.3627 319.206 91.8588ZM402.039 43.7367C400.848 43.6572 399.636 43.6571 398.402 43.7524L224.853 56.4406C210.628 57.4788 199.961 69.8402 201.001 84.0495L223.551 392.626C224.493 405.617 234.909 415.653 247.522 416.495C248.713 416.574 249.925 416.574 251.16 416.479L424.724 403.792C438.933 402.753 449.616 390.392 448.577 376.183L426.01 67.6051C425.067 54.6303 414.652 44.5786 402.039 43.7367ZM319.298 90.2489C312.75 89.8118 307.779 84.1472 308.217 77.5832C308.655 71.0192 314.319 66.0645 320.883 66.5026C327.447 66.9407 332.402 72.6042 331.963 79.1683C331.525 85.7323 325.862 90.687 319.298 90.2489Z" fill="#659FF5"/><mask id="c" style="mask-type:luminance" maskUnits="userSpaceOnUse" x="200" y="43" width="249" height="374"><path d="M448.578 376.166L426.012 67.5887C424.972 53.3794 412.612 42.6968 398.403 43.736L224.853 56.4403C210.628 57.4784 199.961 69.8399 201.001 84.0492L223.551 392.626C224.59 406.835 236.95 417.518 251.16 416.479L424.724 403.791C438.933 402.752 449.616 390.392 448.577 376.183L448.578 376.166ZM319.298 90.2485C312.75 89.8115 307.779 84.1469 308.217 77.5829C308.655 71.0189 314.319 66.0641 320.883 66.5022C327.447 66.9404 332.402 72.6039 331.964 79.1679C331.525 85.7319 325.862 90.6867 319.298 90.2485Z" fill="white"/></mask><g mask="url(#c)"><g style="mix-blend-mode:multiply" opacity="0.7"><path d="M420.826 67.0809L247.185 55.4906C232.963 54.5413 220.675 65.2917 219.726 79.5137L199.121 388.215C198.171 402.437 208.922 414.726 223.144 415.675L396.784 427.265C411.006 428.214 423.295 417.464 424.244 403.242L444.849 94.5403C445.798 80.3183 435.048 68.0302 420.826 67.0809ZM331.538 98.3698C324.991 97.9327 320.02 92.2681 320.458 85.7041C320.896 79.1401 326.56 74.1853 333.124 74.6235C339.688 75.0616 344.642 80.7251 344.204 87.2891C343.766 93.8532 338.103 98.8079 331.538 98.3698Z" fill="#C3DBFF"/></g></g><path d="M326.635 -11.1985L326.185 -11.2286C325.296 -11.2879 324.528 -10.6156 324.468 -9.72711L320.698 46.7588C320.639 47.6473 321.311 48.4157 322.199 48.475L322.65 48.5051C323.538 48.5644 324.307 47.8922 324.366 47.0037L328.136 -9.48227C328.196 -10.3708 327.524 -11.1392 326.635 -11.1985Z" fill="#78ACFC"/><path d="M326.581 -10.3944C327.032 -10.3643 327.362 -9.98673 327.332 -9.53625L323.562 46.9497C323.532 47.4001 323.154 47.7305 322.704 47.7004L322.253 47.6703C321.803 47.6403 321.472 47.2627 321.502 46.8122L325.273 -9.67371C325.303 -10.1242 325.68 -10.4545 326.131 -10.4244L326.581 -10.3944ZM326.689 -12.0032L326.238 -12.0333C324.903 -12.1224 323.753 -11.1164 323.664 -9.78109L319.894 46.7048C319.804 48.0402 320.81 49.19 322.146 49.2792L322.596 49.3092C323.931 49.3984 325.081 48.3924 325.17 47.0571L328.941 -9.42887C329.03 -10.7642 328.024 -11.9141 326.689 -12.0032Z" fill="#659FF5"/><path d="M210.972 406.767C197.216 405.849 186.781 393.921 187.699 380.165L208.306 71.4476C209.224 57.6921 221.152 47.2571 234.907 48.1752L408.548 59.7655C422.303 60.6836 432.738 72.6113 431.82 86.3668L411.214 395.085C410.296 408.84 398.368 419.275 384.612 418.357L210.972 406.767ZM320.935 65.7143C313.953 65.2482 307.879 70.5472 307.412 77.5456C306.945 84.544 312.245 90.6022 319.243 91.0694C326.241 91.5365 332.3 86.2364 332.767 79.238C333.234 72.2396 327.934 66.1814 320.935 65.7143Z" fill="#BBD6FF"/><path d="M408.494 60.5696C421.799 61.4577 431.904 73.0078 431.016 86.3128L410.41 395.031C409.521 408.336 397.971 418.44 384.666 417.552L211.026 405.962C197.721 405.074 187.616 393.524 188.504 380.219L209.11 71.501C209.998 58.196 221.549 48.0913 234.854 48.9794L408.494 60.5696ZM319.207 91.8585C326.64 92.3546 333.092 86.7092 333.589 79.2764C334.085 71.8436 328.439 65.3907 321.007 64.8945C313.574 64.3984 307.121 70.0438 306.625 77.4766C306.129 84.9094 311.774 91.3624 319.207 91.8585ZM408.602 58.9608L234.961 47.3705C220.739 46.4212 208.451 57.1715 207.502 71.3936L186.895 380.111C185.946 394.334 196.696 406.622 210.918 407.571L384.559 419.161C398.781 420.11 411.069 409.36 412.018 395.138L432.625 86.4202C433.574 72.1982 422.824 59.9101 408.602 58.9608ZM319.314 90.2497C312.766 89.8126 307.795 84.148 308.233 77.584C308.672 71.02 314.335 66.0652 320.899 66.5034C327.463 66.9415 332.418 72.605 331.98 79.169C331.542 85.733 325.878 90.6878 319.314 90.2497Z" fill="#A4C8FF"/><path d="M264.543 327.345L263.03 327.244L259.115 385.902L260.627 386.003L264.543 327.345Z" fill="#659FF5"/><path d="M278.716 328.291L277.719 328.225L273.803 386.882L274.801 386.949L278.716 328.291Z" fill="#659FF5"/><path d="M316.395 330.806L315.398 330.739L311.483 389.397L312.48 389.464L316.395 330.806Z" fill="#659FF5"/><path d="M276.625 328.152L275.113 328.051L271.197 386.709L272.71 386.81L276.625 328.152Z" fill="#659FF5"/><path d="M306.082 330.117L305.085 330.051L301.169 388.709L302.167 388.775L306.082 330.117Z" fill="#659FF5"/><path d="M303.991 329.978L302.479 329.877L298.563 388.535L300.076 388.636L303.991 329.978Z" fill="#659FF5"/><path d="M341.01 332.449L340.013 332.383L336.098 391.041L337.095 391.107L341.01 332.449Z" fill="#659FF5"/><path d="M338.919 332.31L337.406 332.209L333.491 390.867L335.003 390.968L338.919 332.31Z" fill="#659FF5"/><path d="M267.567 327.547L266.055 327.446L262.139 386.104L263.652 386.205L267.567 327.547Z" fill="#659FF5"/><path d="M361.249 333.8L359.737 333.699L355.822 392.357L357.334 392.458L361.249 333.8Z" fill="#659FF5"/><path d="M364.274 334.002L362.761 333.901L358.846 392.559L360.358 392.66L364.274 334.002Z" fill="#659FF5"/><path d="M314.513 330.681L313.001 330.58L309.085 389.238L310.598 389.339L314.513 330.681Z" fill="#659FF5"/><path d="M289.93 329.039L288.418 328.938L284.502 387.596L286.015 387.697L289.93 329.039Z" fill="#659FF5"/><path d="M291.635 329.154L291.088 329.117L287.173 387.775L287.72 387.812L291.635 329.154Z" fill="#659FF5"/><path d="M309.123 330.321L308.576 330.284L304.661 388.942L305.208 388.979L309.123 330.321Z" fill="#659FF5"/><path d="M310.217 330.394L309.67 330.357L305.755 389.015L306.302 389.052L310.217 330.394Z" fill="#659FF5"/><path d="M318.631 330.955L318.084 330.919L314.169 389.577L314.716 389.613L318.631 330.955Z" fill="#659FF5"/><path d="M320.144 331.056L319.597 331.02L315.681 389.677L316.228 389.714L320.144 331.056Z" fill="#659FF5"/><path d="M353.06 333.253L352.063 333.187L348.148 391.844L349.145 391.911L353.06 333.253Z" fill="#659FF5"/><path d="M351.194 333.129L349.682 333.028L345.767 391.686L347.279 391.787L351.194 333.129Z" fill="#659FF5"/><path d="M355.297 333.403L354.75 333.366L350.834 392.024L351.381 392.061L355.297 333.403Z" fill="#659FF5"/><path d="M356.809 333.503L356.262 333.467L352.346 392.125L352.893 392.161L356.809 333.503Z" fill="#659FF5"/><path d="M293.984 329.31L292.472 329.209L288.557 387.867L290.069 387.968L293.984 329.31Z" fill="#659FF5"/><path d="M295.689 329.424L295.142 329.388L291.227 388.046L291.774 388.082L295.689 329.424Z" fill="#659FF5"/><path d="M323.683 331.292L322.171 331.191L318.256 389.849L319.768 389.95L323.683 331.292Z" fill="#659FF5"/><path d="M325.405 331.408L324.858 331.371L320.942 390.029L321.489 390.065L325.405 331.408Z" fill="#659FF5"/><path d="M328.815 331.635L327.303 331.534L323.388 390.192L324.9 390.293L328.815 331.635Z" fill="#659FF5"/><path d="M330.537 331.75L329.99 331.714L326.075 390.372L326.622 390.408L330.537 331.75Z" fill="#659FF5"/><path d="M308.029 330.247L307.482 330.211L303.567 388.869L304.114 388.905L308.029 330.247Z" fill="#659FF5"/><path d="M381.714 335.166L381.167 335.13L377.251 393.788L377.798 393.824L381.714 335.166Z" fill="#659FF5"/><path d="M382.808 335.239L382.261 335.202L378.345 393.86L378.892 393.897L382.808 335.239Z" fill="#659FF5"/><path d="M380.603 335.092L380.056 335.056L376.141 393.714L376.688 393.75L380.603 335.092Z" fill="#659FF5"/><path d="M345.225 332.731L344.678 332.694L340.763 391.352L341.31 391.389L345.225 332.731Z" fill="#659FF5"/><path d="M346.319 332.803L345.772 332.767L341.857 391.424L342.404 391.461L346.319 332.803Z" fill="#659FF5"/><path d="M344.115 332.657L343.568 332.62L339.653 391.278L340.2 391.314L344.115 332.657Z" fill="#659FF5"/><path d="M273.906 327.97L271.782 327.828L267.867 386.486L269.991 386.628L273.906 327.97Z" fill="#659FF5"/><path d="M284.251 328.661L281.097 328.45L277.182 387.108L280.335 387.319L284.251 328.661Z" fill="#659FF5"/><path d="M373.412 334.612L372.415 334.546L368.499 393.204L369.497 393.27L373.412 334.612Z" fill="#659FF5"/><path d="M371.32 334.472L369.808 334.371L365.893 393.029L367.405 393.13L371.32 334.472Z" fill="#659FF5"/><path d="M368.602 334.291L366.478 334.149L362.563 392.807L364.686 392.949L368.602 334.291Z" fill="#659FF5"/><path d="M378.947 334.981L375.793 334.771L371.878 393.428L375.031 393.639L378.947 334.981Z" fill="#659FF5"/><path d="M336.425 332.143L333.272 331.933L329.356 390.59L332.51 390.801L336.425 332.143Z" fill="#659FF5"/><path d="M301.578 329.817L298.425 329.606L294.509 388.264L297.663 388.475L301.578 329.817Z" fill="#659FF5"/><path d="M392.702 335.9L391.704 335.833L387.789 394.491L388.786 394.557L392.702 335.9Z" fill="#659FF5"/><path d="M390.626 335.761L389.114 335.66L385.199 394.318L386.711 394.419L390.626 335.761Z" fill="#659FF5"/><path d="M395.759 336.104L395.212 336.067L391.296 394.725L391.843 394.762L395.759 336.104Z" fill="#659FF5"/><path d="M396.853 336.176L396.306 336.14L392.39 394.798L392.937 394.834L396.853 336.176Z" fill="#659FF5"/><path d="M394.649 336.03L394.102 335.993L390.186 394.651L390.733 394.688L394.649 336.03Z" fill="#659FF5"/><path d="M388.213 335.6L385.06 335.39L381.145 394.048L384.298 394.258L388.213 335.6Z" fill="#659FF5"/><path d="M253.208 326.717L212.392 323.993C209.727 323.815 207.421 325.832 207.244 328.497L203.985 377.309C203.807 379.975 205.824 382.28 208.49 382.458L249.306 385.182C251.971 385.36 254.276 383.344 254.454 380.678L257.712 331.866C257.89 329.201 255.874 326.895 253.208 326.717Z" fill="#8FBBFF"/><path d="M217.464 368.335L218.928 368.433L218.593 373.453L221.199 373.627L221.12 374.817L217.065 374.547L217.481 368.32L217.464 368.335Z" fill="#5491EC"/><path d="M225.2 375.186C223.527 375.074 222.333 373.831 222.453 371.787C222.59 369.744 223.953 368.687 225.626 368.799C227.299 368.911 228.511 370.123 228.39 372.183C228.252 374.243 226.873 375.298 225.2 375.186ZM225.286 373.899C226.203 373.96 226.795 373.321 226.894 372.083C226.975 370.861 226.458 370.131 225.54 370.086C224.639 370.026 224.047 370.665 223.949 371.887C223.867 373.126 224.385 373.839 225.286 373.899Z" fill="#5491EC"/><path d="M229.083 375.348L231.606 369.263L233.553 369.393L235.245 375.76L233.668 375.654L233.338 374.307L231.15 374.161L230.644 375.452L229.067 375.347L229.083 375.348ZM233.059 373.157L232.501 370.874L232.452 370.871L231.595 373.06L233.059 373.157Z" fill="#5491EC"/><path d="M241.889 376.203L240.635 376.12L238.352 372.299L238.32 372.297L238.077 375.949L236.612 375.851L237.028 369.625L238.299 369.71L240.549 373.528L240.581 373.53L240.825 369.878L242.305 369.977L241.889 376.203Z" fill="#5491EC"/><path d="M226.054 237.463L232.392 237.886L229.927 274.825L222.639 274.338L224.59 245.106L217.494 246.588L216.124 240.242L226.054 237.463Z" fill="#2A3038"/><path d="M235.139 275.173L235.502 269.735L248.982 257.593C251.995 254.821 253.559 252.453 253.69 250.49C253.787 249.042 253.414 247.854 252.571 246.925C251.729 245.98 250.616 245.469 249.2 245.375C246.417 245.189 244.261 246.5 242.733 249.29L236.859 245.294C238.186 242.846 239.989 241.011 242.266 239.822C244.543 238.632 246.969 238.116 249.576 238.29C252.922 238.513 255.716 239.75 257.974 242.001C260.231 244.253 261.233 247.164 260.996 250.703C260.741 254.532 258.452 258.322 254.144 262.091L246.42 268.864L260.304 269.79L259.836 276.805L235.14 275.156L235.139 275.173Z" fill="#2A3038"/><path d="M272.025 276.989C271.081 277.814 270.006 278.179 268.767 278.096C267.529 278.014 266.512 277.509 265.686 276.565C264.86 275.621 264.496 274.547 264.578 273.308C264.661 272.069 265.165 271.052 266.109 270.227C267.053 269.401 268.128 269.036 269.367 269.119C270.605 269.202 271.622 269.706 272.448 270.65C273.274 271.594 273.638 272.668 273.556 273.907C273.473 275.146 272.969 276.163 272.025 276.989Z" fill="#2A3038"/><path d="M292.568 253.926C296.39 254.294 299.428 255.741 301.667 258.266C303.907 260.791 304.894 263.911 304.647 267.612C304.4 271.312 302.935 274.381 300.28 276.628C297.625 278.875 294.327 279.867 290.385 279.604C286.444 279.341 283.322 277.936 280.988 275.373C278.67 272.81 277.638 269.639 277.891 265.842C278.079 263.026 278.969 260.597 280.543 258.553L293.205 241.962L301.539 242.518L292.551 253.941L292.568 253.926ZM286.578 270.801C287.663 271.972 289.09 272.617 290.844 272.734C292.598 272.851 294.098 272.402 295.362 271.387C296.609 270.372 297.301 268.963 297.424 267.129C297.546 265.295 297.044 263.856 295.943 262.684C294.841 261.511 293.398 260.865 291.644 260.748C289.89 260.631 288.391 261.064 287.161 262.065C285.93 263.066 285.255 264.475 285.132 266.309C285.01 268.143 285.492 269.63 286.578 270.801Z" fill="#2A3038"/><path d="M322.62 258.13C320.819 259.69 318.655 260.386 316.113 260.216C313.571 260.047 311.52 259.069 309.927 257.266C308.334 255.463 307.619 253.347 307.781 250.918C307.943 248.488 308.934 246.486 310.752 244.91C312.57 243.335 314.749 242.64 317.275 242.809C319.801 242.977 321.869 243.956 323.446 245.742C325.024 247.528 325.723 249.643 325.559 252.104C325.395 254.566 324.403 256.584 322.62 258.13ZM309.971 274.528L335.825 249.38L338.922 251.396L313.017 276.59L309.971 274.528ZM314.138 253.734C314.705 254.434 315.472 254.808 316.422 254.872C317.371 254.935 318.181 254.666 318.868 254.049C319.539 253.448 319.914 252.665 319.977 251.716C320.041 250.766 319.772 249.957 319.187 249.271C318.603 248.586 317.819 248.226 316.869 248.163C315.92 248.1 315.11 248.369 314.457 248.955C313.804 249.542 313.445 250.326 313.381 251.275C313.318 252.224 313.57 253.049 314.138 253.734ZM339.054 280.17C337.252 281.746 335.088 282.442 332.546 282.273C330.004 282.103 327.953 281.126 326.376 279.324C324.8 277.522 324.1 275.406 324.263 272.977C324.425 270.548 325.415 268.545 327.201 266.968C329.003 265.391 331.166 264.695 333.708 264.865C336.25 265.035 338.302 266.012 339.878 267.814C341.455 269.616 342.154 271.731 341.992 274.161C341.83 276.59 340.84 278.592 339.054 280.17ZM330.633 275.826C331.202 276.511 331.968 276.901 332.917 276.965C333.866 277.028 334.677 276.743 335.332 276.124C335.989 275.489 336.347 274.721 336.408 273.804C336.469 272.887 336.22 272.03 335.651 271.346C335.083 270.661 334.317 270.271 333.368 270.207C332.419 270.144 331.609 270.413 330.953 271.032C330.298 271.651 329.94 272.419 329.876 273.368C329.813 274.317 330.065 275.142 330.633 275.826Z" fill="#2A3038"/><path d="M262.776 139.286C264.111 139.375 265.255 138.374 265.344 137.04L265.69 131.853C265.752 130.934 265.304 130.069 264.499 129.619L248.4 120.192C247.342 119.572 246.007 119.483 244.877 119.957L227.668 127.161C226.809 127.521 226.251 128.297 226.19 129.217L225.845 134.381C225.756 135.716 226.757 136.86 228.092 136.949L229.842 137.066L229.065 148.708L227.315 148.591C225.98 148.502 224.836 149.503 224.747 150.838L224.36 156.637C224.271 157.972 225.271 159.116 226.606 159.205L261.27 161.519C262.605 161.608 263.749 160.607 263.838 159.272L264.225 153.473C264.314 152.138 263.314 150.994 261.979 150.905L260.228 150.788L261.005 139.146L262.778 139.264L262.776 139.286ZM253.525 145.175L251.73 145.055L249.871 149.525C249.661 150.039 249.156 150.357 248.586 150.341L248.564 150.339C248.017 150.303 247.557 149.942 247.395 149.404L245.228 142.357L242.454 149.008C242.244 149.522 241.739 149.84 241.169 149.824C240.621 149.787 240.14 149.425 239.978 148.887L238.514 144.151L236.479 144.015C235.756 143.967 235.205 143.337 235.253 142.615C235.301 141.892 235.932 141.341 236.654 141.389L237.682 141.458L236.724 138.361C236.507 137.665 236.908 136.922 237.603 136.727C238.298 136.509 239.041 136.911 239.236 137.605L241.404 144.652L244.178 138.001C244.388 137.487 244.893 137.169 245.463 137.185L245.485 137.187C246.032 137.223 246.492 137.584 246.654 138.122L248.821 145.169L251.595 138.518C251.881 137.855 252.65 137.533 253.312 137.819C253.975 138.105 254.297 138.874 254.011 139.536L252.756 142.53L253.653 142.59C254.375 142.638 254.927 143.268 254.879 143.991C254.83 144.713 254.247 145.223 253.525 145.175Z" fill="#3175D9"/><path d="M241.194 343.772C240.126 342.586 239.033 341.77 238.212 341.246L239.565 339.607C240.18 338.873 240.311 337.879 239.933 336.998C239.555 336.132 238.738 335.544 237.788 335.481L226.494 334.727C225.545 334.664 224.657 335.138 224.167 335.945C223.677 336.753 223.689 337.772 224.185 338.581L225.309 340.385C224.441 340.796 223.233 341.458 222.017 342.492C219.892 344.306 217.264 347.605 216.897 353.107C216.662 356.63 218.15 359.024 219.432 360.403C220.292 361.316 221.482 361.881 222.769 361.967L237.796 362.97C239.083 363.056 240.337 362.671 241.312 361.863C242.781 360.668 244.558 358.508 244.794 354.969C245.161 349.467 243.012 345.833 241.13 343.768L241.194 343.772ZM235.174 349.22L228.035 355.466C227.863 355.616 227.649 355.683 227.424 355.668C227.198 355.653 226.995 355.558 226.844 355.387C226.544 355.044 226.58 354.513 226.924 354.196L234.063 347.95C234.407 347.65 234.938 347.685 235.254 348.03C235.554 348.373 235.519 348.904 235.174 349.22ZM234.935 354.505C234.883 355.277 234.214 355.863 233.442 355.811C232.67 355.759 232.084 355.09 232.136 354.318C232.187 353.546 232.856 352.96 233.629 353.012C234.401 353.063 234.986 353.732 234.935 354.505ZM227.197 348.655C227.248 347.883 227.918 347.298 228.69 347.349C229.462 347.401 230.048 348.07 229.996 348.842C229.945 349.615 229.275 350.2 228.503 350.149C227.731 350.097 227.145 349.428 227.197 348.655Z" fill="#5491EC"/><mask id="d" style="mask-type:luminance" maskUnits="userSpaceOnUse" x="230" y="230" width="193" height="158"><path d="M422.181 242.879L240.094 230.725L230.425 375.583L412.512 387.737L422.181 242.879Z" fill="white"/></mask><g mask="url(#d)"><g filter="url(#e)"><path d="M410.542 250.456L412.899 246.121C413.249 245.482 412.653 244.731 411.944 244.942L239.107 295.88C238.414 296.092 238.302 297.038 238.941 297.388L243.276 299.746C244.602 300.464 245.089 302.129 244.37 303.455L242.363 307.134C241.644 308.46 242.132 310.109 243.457 310.843L247.137 312.851C248.462 313.569 248.949 315.234 248.23 316.56L246.223 320.239C245.505 321.565 245.992 323.213 247.317 323.948L250.997 325.955C252.322 326.674 252.809 328.339 252.09 329.664L250.083 333.344C249.365 334.67 249.853 336.318 251.177 337.053L254.857 339.06C256.182 339.779 256.669 341.444 255.951 342.769L253.944 346.449C253.225 347.775 253.713 349.423 255.037 350.158L258.717 352.165C260.043 352.884 260.529 354.548 259.811 355.874L257.804 359.554C257.085 360.879 257.573 362.528 258.897 363.263L262.577 365.27C263.903 365.989 264.39 367.653 263.671 368.979L261.313 373.314C260.963 373.953 261.56 374.704 262.269 374.493L435.106 323.555C435.799 323.343 435.91 322.397 435.271 322.047L430.936 319.689C429.61 318.97 429.124 317.306 429.842 315.98L431.849 312.3C432.568 310.975 432.08 309.326 430.756 308.591L427.076 306.584C425.75 305.866 425.263 304.201 425.982 302.875L427.989 299.195C428.708 297.87 428.22 296.221 426.895 295.486L423.216 293.479C421.89 292.761 421.403 291.096 422.122 289.77L424.129 286.091C424.848 284.765 424.36 283.116 423.035 282.382L419.356 280.375C418.03 279.656 417.543 277.991 418.262 276.666L420.269 272.986C420.988 271.66 420.5 270.012 419.175 269.277L415.495 267.27C414.17 266.551 413.683 264.886 414.402 263.561L416.409 259.881C417.127 258.555 416.64 256.907 415.315 256.172L411.635 254.165C410.31 253.446 409.823 251.782 410.542 250.456Z" fill="#F65E59"/><path d="M410.542 250.456L412.899 246.121C413.249 245.482 412.653 244.731 411.944 244.942L239.107 295.88C238.414 296.092 238.302 297.038 238.941 297.388L243.276 299.746C244.602 300.464 245.089 302.129 244.37 303.455L242.363 307.134C241.644 308.46 242.132 310.109 243.457 310.843L247.137 312.851C248.462 313.569 248.949 315.234 248.23 316.56L246.223 320.239C245.505 321.565 245.992 323.213 247.317 323.948L250.997 325.955C252.322 326.674 252.809 328.339 252.09 329.664L250.083 333.344C249.365 334.67 249.853 336.318 251.177 337.053L254.857 339.06C256.182 339.779 256.669 341.444 255.951 342.769L253.944 346.449C253.225 347.775 253.713 349.423 255.037 350.158L258.717 352.165C260.043 352.884 260.529 354.548 259.811 355.874L257.804 359.554C257.085 360.879 257.573 362.528 258.897 363.263L262.577 365.27C263.903 365.989 264.39 367.653 263.671 368.979L261.313 373.314C260.963 373.953 261.56 374.704 262.269 374.493L435.106 323.555C435.799 323.343 435.91 322.397 435.271 322.047L430.936 319.689C429.61 318.97 429.124 317.306 429.842 315.98L431.849 312.3C432.568 310.975 432.08 309.326 430.756 308.591L427.076 306.584C425.75 305.866 425.263 304.201 425.982 302.875L427.989 299.195C428.708 297.87 428.22 296.221 426.895 295.486L423.216 293.479C421.89 292.761 421.403 291.096 422.122 289.77L424.129 286.091C424.848 284.765 424.36 283.116 423.035 282.382L419.356 280.375C418.03 279.656 417.543 277.991 418.262 276.666L420.269 272.986C420.988 271.66 420.5 270.012 419.175 269.277L415.495 267.27C414.17 266.551 413.683 264.886 414.402 263.561L416.409 259.881C417.127 258.555 416.64 256.907 415.315 256.172L411.635 254.165C410.31 253.446 409.823 251.782 410.542 250.456Z" stroke="#E74F4B" stroke-width="1.61241" stroke-miterlimit="10"/></g><path d="M269.764 334.835L267.999 328.835L286.148 323.485L287.913 329.485L269.764 334.835Z" fill="#FFFAF9"/><path d="M309.932 336.369C305.711 337.622 301.924 336.982 298.568 334.479C295.212 331.977 292.758 328.064 291.191 322.74C289.623 317.415 289.56 312.789 291.017 308.879C292.475 304.952 295.313 302.378 299.55 301.126C303.803 299.875 307.607 300.5 310.947 303.002C314.287 305.503 316.739 309.432 318.307 314.757C319.874 320.081 319.938 324.691 318.497 328.618C317.056 332.53 314.2 335.119 309.948 336.37L309.932 336.369ZM302.036 328.521C303.76 330.059 305.75 330.499 308.008 329.841C310.267 329.168 311.705 327.712 312.323 325.475C312.942 323.222 312.716 320.314 311.663 316.721C310.595 313.111 309.201 310.513 307.463 308.958C305.724 307.404 303.717 306.963 301.46 307.621C299.202 308.278 297.763 309.733 297.177 311.989C296.575 314.227 296.815 317.168 297.867 320.777C298.935 324.388 300.33 326.969 302.036 328.521Z" fill="#FFFAF9"/><path d="M332.741 328.276C332.17 329.32 331.332 330.008 330.195 330.336C329.058 330.664 327.984 330.544 326.938 329.989C325.893 329.418 325.207 328.565 324.878 327.444C324.548 326.323 324.654 325.231 325.224 324.186C325.795 323.142 326.649 322.455 327.77 322.126C328.907 321.798 329.982 321.902 331.027 322.473C332.072 323.044 332.758 323.897 333.087 325.018C333.415 326.155 333.295 327.23 332.741 328.276Z" fill="#FFFAF9"/><path d="M335.947 291.128L341.75 289.415L351.738 323.29L345.062 325.253L337.156 298.433L331.303 302.114L327.968 296.882L335.948 291.112L335.947 291.128Z" fill="#FFFAF9"/><path d="M365.25 296.623C364.147 298.618 362.443 299.943 360.118 300.628C357.794 301.313 355.627 301.104 353.598 300.015C351.57 298.926 350.243 297.27 349.583 295.044C348.924 292.819 349.146 290.701 350.266 288.691C351.37 286.68 353.091 285.34 355.416 284.655C357.74 283.97 359.892 284.162 361.906 285.234C363.903 286.304 365.245 287.978 365.903 290.235C366.576 292.494 366.354 294.612 365.251 296.607L365.25 296.623ZM356.21 295.503C356.957 295.941 357.759 296.026 358.633 295.762C359.507 295.497 360.139 294.99 360.546 294.225C360.952 293.46 361.023 292.641 360.774 291.768C360.526 290.895 360.018 290.263 359.255 289.84C358.506 289.435 357.688 289.348 356.814 289.613C355.941 289.861 355.309 290.369 354.919 291.118C354.53 291.868 354.46 292.671 354.709 293.544C354.974 294.418 355.464 295.065 356.21 295.503ZM359.336 315.491L374.175 284.453L377.613 285.232L362.738 316.333L359.336 315.491ZM387.24 310.955C386.153 312.967 384.447 314.307 382.123 314.992C379.799 315.678 377.631 315.468 375.635 314.382C373.623 313.294 372.295 311.638 371.653 309.397C370.994 307.171 371.216 305.053 372.304 303.041C373.391 301.029 375.097 299.689 377.421 299.003C379.745 298.318 381.913 298.528 383.909 299.614C385.921 300.702 387.248 302.374 387.907 304.6C388.566 306.825 388.344 308.944 387.258 310.94L387.24 310.955ZM378.265 309.838C379.012 310.276 379.814 310.362 380.688 310.097C381.561 309.848 382.178 309.324 382.57 308.542C382.961 307.76 383.015 306.956 382.78 306.116C382.515 305.242 382.025 304.595 381.279 304.157C380.532 303.72 379.73 303.634 378.856 303.899C377.983 304.147 377.35 304.671 376.959 305.437C376.569 306.202 376.498 307.022 376.763 307.896C377.012 308.769 377.518 309.417 378.264 309.854L378.265 309.838Z" fill="#FFFAF9"/><path d="M398.185 292.972C400.196 292.379 402.134 292.637 404.001 293.731C405.866 294.842 407.129 296.493 407.773 298.702C408.418 300.91 408.263 302.985 407.293 304.924C406.324 306.863 404.834 308.121 402.823 308.714C400.729 309.334 398.904 309.082 397.346 307.96L399.627 315.676L395.786 316.809L389.632 295.94L393.473 294.806L393.986 296.57C394.686 294.79 396.092 293.591 398.169 292.97L398.185 292.972ZM397.725 304.948C398.723 305.499 399.831 305.605 401.018 305.248C402.205 304.891 403.091 304.207 403.644 303.193C404.196 302.18 404.287 301.055 403.934 299.819C403.564 298.583 402.879 297.697 401.866 297.144C400.852 296.592 399.744 296.485 398.557 296.842C397.37 297.199 396.5 297.885 395.948 298.882C395.412 299.897 395.321 301.022 395.675 302.258C396.045 303.494 396.729 304.38 397.725 304.948Z" fill="#FFFAF9"/></g><path d="M319.795 45.2761L319.344 45.2461C318.456 45.1868 317.687 45.859 317.628 46.7475L316.127 69.2389C316.067 70.1274 316.74 70.8958 317.628 70.9551L318.079 70.9852C318.967 71.0445 319.736 70.3723 319.795 69.4837L321.296 46.9923C321.355 46.1038 320.683 45.3354 319.795 45.2761Z" fill="#78ACFC"/><path d="M319.725 46.0793C320.176 46.1093 320.506 46.4869 320.476 46.9374L318.975 69.4288C318.944 69.8793 318.567 70.2096 318.116 70.1795L317.666 70.1494C317.215 70.1194 316.885 69.7418 316.915 69.2913L318.416 46.7999C318.447 46.3495 318.824 46.0191 319.275 46.0492L319.725 46.0793ZM319.832 44.4704L319.382 44.4404C318.047 44.3512 316.897 45.3572 316.808 46.6925L315.306 69.1839C315.217 70.5193 316.223 71.6691 317.559 71.7583L318.009 71.7883C319.344 71.8775 320.494 70.8715 320.583 69.5362L322.085 47.0448C322.174 45.7094 321.168 44.5596 319.832 44.4704Z" fill="#659FF5"/><path d="M325.056 45.6277L324.606 45.5976C323.717 45.5383 322.949 46.2105 322.889 47.0991L321.388 69.5905C321.329 70.479 322.001 71.2474 322.89 71.3067L323.34 71.3368C324.229 71.3961 324.997 70.7238 325.056 69.8353L326.558 47.3439C326.617 46.4554 325.945 45.687 325.056 45.6277Z" fill="#78ACFC"/><path d="M325.002 46.4318C325.453 46.4619 325.783 46.8394 325.753 47.2899L324.252 69.7813C324.222 70.2318 323.844 70.5621 323.394 70.532L322.943 70.502C322.493 70.4719 322.162 70.0943 322.192 69.6439L323.694 47.1525C323.724 46.702 324.101 46.3717 324.552 46.4017L325.002 46.4318ZM325.11 44.823L324.659 44.7929C323.324 44.7038 322.174 45.7098 322.085 47.0451L320.584 69.5365C320.494 70.8718 321.5 72.0217 322.836 72.1108L323.286 72.1409C324.621 72.23 325.771 71.224 325.86 69.8887L327.362 47.3973C327.451 46.062 326.445 44.9121 325.11 44.823Z" fill="#659FF5"/><path d="M240.336 195.278C240.203 197.27 239.704 198.958 238.839 200.343C237.974 201.719 236.85 202.739 235.466 203.402C234.082 204.065 232.548 204.341 230.864 204.228C229.18 204.116 227.697 203.639 226.413 202.798C225.13 201.957 224.151 200.792 223.478 199.305C222.813 197.818 222.547 196.083 222.679 194.1C222.812 192.108 223.307 190.419 224.164 189.034C225.029 187.64 226.154 186.616 227.537 185.962C228.92 185.307 230.454 185.036 232.138 185.148C233.822 185.261 235.306 185.733 236.59 186.566C237.874 187.399 238.852 188.563 239.525 190.059C240.198 191.547 240.469 193.286 240.336 195.278ZM235.874 194.98C235.955 193.758 235.849 192.712 235.555 191.842C235.27 190.964 234.813 190.286 234.184 189.806C233.555 189.317 232.788 189.043 231.882 188.982C230.976 188.922 230.183 189.092 229.504 189.493C228.825 189.886 228.282 190.498 227.874 191.329C227.467 192.152 227.223 193.175 227.141 194.397C227.06 195.62 227.166 196.666 227.46 197.536C227.755 198.397 228.212 199.071 228.832 199.559C229.452 200.047 230.215 200.325 231.12 200.394C232.027 200.446 232.824 200.272 233.512 199.871C234.2 199.471 234.743 198.863 235.141 198.048C235.548 197.225 235.792 196.203 235.874 194.98ZM260.339 196.613C260.206 198.605 259.707 200.293 258.842 201.678C257.977 203.054 256.853 204.074 255.469 204.737C254.085 205.401 252.552 205.676 250.868 205.564C249.183 205.451 247.7 204.974 246.416 204.133C245.133 203.292 244.155 202.127 243.481 200.64C242.816 199.153 242.55 197.418 242.682 195.435C242.815 193.443 243.31 191.754 244.167 190.369C245.033 188.976 246.157 187.952 247.54 187.297C248.923 186.642 250.457 186.371 252.141 186.484C253.825 186.596 255.309 187.069 256.593 187.901C257.877 188.734 258.855 189.898 259.528 191.394C260.202 192.882 260.472 194.621 260.339 196.613ZM255.877 196.315C255.958 195.093 255.852 194.047 255.558 193.177C255.273 192.3 254.816 191.621 254.187 191.141C253.559 190.652 252.791 190.378 251.885 190.317C250.979 190.257 250.186 190.427 249.507 190.828C248.828 191.221 248.285 191.833 247.877 192.665C247.47 193.487 247.226 194.51 247.145 195.733C247.063 196.955 247.169 198.001 247.463 198.871C247.758 199.732 248.215 200.406 248.835 200.894C249.455 201.382 250.218 201.661 251.123 201.73C252.03 201.782 252.827 201.607 253.515 201.207C254.203 200.806 254.746 200.198 255.144 199.383C255.551 198.56 255.795 197.538 255.877 196.315ZM272.748 190.164L275.286 190.334L275.493 187.244L278.904 187.471L278.145 198.832L268.695 198.201L269.453 186.841L272.954 187.074L272.748 190.164ZM274.928 195.707L275.096 193.193L272.557 193.024L272.389 195.537L274.928 195.707ZM288.143 200.903L284.643 200.67L285.589 186.488L289.09 186.722L288.143 200.903ZM285.947 195.025L282.408 194.789L282.606 191.827L286.145 192.063L285.947 195.025ZM283.079 199.973L279.669 199.745L280.549 186.551L283.96 186.778L283.079 199.973ZM280.007 200.657C281.665 200.767 283.102 201.048 284.317 201.498C285.533 201.94 286.455 202.529 287.084 203.267C287.714 203.996 287.997 204.831 287.934 205.771C287.873 206.694 287.482 207.467 286.762 208.088C286.042 208.718 285.05 209.172 283.786 209.448C282.523 209.724 281.062 209.807 279.404 209.696C277.737 209.585 276.295 209.309 275.08 208.867C273.873 208.426 272.954 207.845 272.324 207.125C271.693 206.413 271.413 205.595 271.483 204.673C271.537 203.732 271.925 202.942 272.646 202.303C273.367 201.656 274.356 201.194 275.61 200.917C276.875 200.632 278.34 200.545 280.007 200.657ZM279.818 203.49C278.835 203.425 278.001 203.433 277.317 203.517C276.643 203.592 276.121 203.746 275.754 203.979C275.395 204.213 275.206 204.526 275.189 204.92C275.155 205.296 275.301 205.619 275.626 205.89C275.96 206.161 276.457 206.379 277.115 206.543C277.774 206.707 278.599 206.826 279.59 206.901C280.574 206.958 281.403 206.949 282.078 206.874C282.752 206.799 283.269 206.649 283.628 206.424C283.995 206.199 284.195 205.899 284.229 205.524C284.246 205.13 284.088 204.793 283.755 204.513C283.43 204.234 282.934 204.012 282.267 203.847C281.609 203.674 280.792 203.555 279.818 203.49ZM308.46 192.909L293.586 191.916L293.783 188.967L308.657 189.96L308.46 192.909ZM311.576 209.139L290.123 207.707L290.323 204.72L311.775 206.151L311.576 209.139ZM310.585 192.909C310.478 194.387 310.372 195.651 310.268 196.7C310.164 197.741 309.986 198.927 309.734 200.258C309.483 201.581 309.137 203.026 308.698 204.594L305.051 204.041C305.5 202.594 305.849 201.227 306.098 199.938C306.355 198.65 306.536 197.494 306.638 196.471C306.741 195.439 306.847 194.179 306.955 192.692L306.963 192.564L307.144 189.859L310.773 190.101L310.592 192.806L310.585 192.909ZM292.831 198.795L292.59 195.842L307.459 196.332L307.276 199.076L292.831 198.795Z" fill="black"/></g><path d="M560.198 358.268C533.759 352.98 529.422 348.584 524.134 322.205C523.659 320.006 521.758 318.402 519.5 318.402C517.242 318.402 515.282 320.006 514.866 322.205C509.578 348.643 505.182 352.98 478.802 358.268C476.604 358.743 475 360.645 475 362.902C475 365.16 476.604 367.121 478.802 367.537C505.241 372.824 509.578 377.221 514.866 403.6C515.341 405.798 517.242 407.402 519.5 407.402C521.758 407.402 523.718 405.798 524.134 403.6C529.422 377.161 533.818 372.824 560.198 367.537C562.396 367.061 564 365.16 564 362.902C564 360.645 562.396 358.684 560.198 358.268Z" fill="#FFBA21"/><path fill-rule="evenodd" clip-rule="evenodd" d="M513.884 322.014C514.393 319.337 516.773 317.402 519.5 317.402C522.249 317.402 524.541 319.356 525.112 321.993L525.115 322.008C527.765 335.23 530.134 342.624 534.942 347.439C539.749 352.253 547.142 354.637 560.389 357.287C563.066 357.796 565 360.175 565 362.902C565 365.652 563.047 367.944 560.409 368.514L560.394 368.517C547.172 371.167 539.778 373.536 534.963 378.344C530.149 383.151 527.765 390.544 525.116 403.791C524.607 406.468 522.227 408.402 519.5 408.402C516.751 408.402 514.459 406.449 513.888 403.811L513.885 403.796C511.235 390.575 508.866 383.18 504.058 378.366C499.251 373.552 491.859 371.168 478.611 368.518C475.935 368.009 474 365.63 474 362.902C474 360.153 475.953 357.861 478.591 357.291L478.606 357.288C491.828 354.637 499.222 352.268 504.037 347.46C508.851 342.654 511.235 335.261 513.884 322.014ZM519.5 319.402C517.714 319.402 516.173 320.673 515.848 322.391L515.846 322.401L515.846 322.401C513.209 335.589 510.75 343.583 505.45 348.876C500.151 354.167 492.159 356.61 479.007 359.247C477.252 359.63 476 361.139 476 362.902C476 364.688 477.271 366.229 478.988 366.554L478.999 366.556L478.999 366.556C492.187 369.194 500.181 371.652 505.473 376.952C510.765 382.251 513.208 390.243 515.845 403.396C516.227 405.151 517.736 406.402 519.5 406.402C521.286 406.402 522.827 405.131 523.152 403.414L523.154 403.404C525.791 390.216 528.25 382.222 533.55 376.929C538.849 371.638 546.841 369.194 559.993 366.558C561.748 366.175 563 364.666 563 362.902C563 361.116 561.729 359.576 560.012 359.251L560.001 359.249C546.813 356.611 538.819 354.153 533.527 348.852C528.235 343.553 525.792 335.562 523.155 322.409C522.772 320.654 521.264 319.402 519.5 319.402Z" fill="#F8A907"/><path d="M140.709 129.6C142.395 129.233 143.641 127.767 143.641 126.008C143.641 124.249 142.395 122.783 140.709 122.416C123.85 119.044 121.284 116.479 117.912 99.6195C117.546 97.9336 116.08 96.6875 114.32 96.6875C112.561 96.6875 111.095 97.9336 110.729 99.6195C107.357 116.479 104.791 119.044 87.932 122.416C86.2461 122.783 85 124.249 85 126.008C85 127.767 86.2461 129.233 87.932 129.6C104.791 132.972 107.357 135.537 110.729 152.396C111.095 154.082 112.561 155.328 114.32 155.328C116.08 155.328 117.546 154.082 117.912 152.396C121.284 135.537 123.85 132.972 140.709 129.6Z" fill="#FFBA21"/><path fill-rule="evenodd" clip-rule="evenodd" d="M109.752 99.4071C110.214 97.2819 112.07 95.6875 114.32 95.6875C116.571 95.6875 118.427 97.2819 118.889 99.4071L118.893 99.4234C120.587 107.893 122.035 112.443 124.96 115.369C127.885 118.294 132.435 119.742 140.905 121.436L140.921 121.439C143.047 121.901 144.641 123.758 144.641 126.008C144.641 128.258 143.047 130.115 140.921 130.577L140.905 130.58C132.435 132.274 127.885 133.722 124.96 136.647C122.035 139.573 120.587 144.123 118.893 152.592L118.889 152.609C118.427 154.734 116.571 156.328 114.32 156.328C112.07 156.328 110.214 154.734 109.752 152.609L109.748 152.592C108.054 144.123 106.606 139.573 103.681 136.647C100.756 133.722 96.2058 132.274 87.7359 130.58L87.7196 130.577C85.5944 130.115 84 128.258 84 126.008C84 123.758 85.5944 121.901 87.7196 121.439L87.7359 121.436C96.2058 119.742 100.756 118.294 103.681 115.369C106.606 112.443 108.054 107.893 109.748 99.4234L109.752 99.4071ZM111.708 99.8244C110.03 108.209 108.509 113.369 105.095 116.783C101.681 120.197 96.5212 121.718 88.137 123.395C86.8943 123.669 86 124.742 86 126.008C86 127.274 86.8943 128.347 88.1369 128.621C96.5212 130.298 101.681 131.819 105.095 135.233C108.509 138.647 110.03 143.807 111.708 152.191C111.981 153.434 113.055 154.328 114.32 154.328C115.586 154.328 116.66 153.434 116.933 152.191C118.611 143.807 120.132 138.647 123.546 135.233C126.96 131.819 132.12 130.298 140.504 128.621C141.747 128.347 142.641 127.274 142.641 126.008C142.641 124.742 141.747 123.669 140.504 123.395C132.12 121.718 126.96 120.197 123.546 116.783C120.132 113.369 118.611 108.209 116.933 99.8244C116.66 98.5818 115.586 97.6875 114.32 97.6875C113.055 97.6875 111.981 98.5818 111.708 99.8244Z" fill="#F8A907"/><path d="M138.346 86.917C148.681 88.9695 150.074 90.4355 152.2 100.771C152.493 102.164 153.666 103.117 155.058 103.117C156.451 103.117 157.697 102.164 157.917 100.771C159.969 90.4355 161.436 89.0428 171.771 86.917C173.164 86.6238 174.117 85.451 174.117 84.0583C174.117 82.6656 173.09 81.4928 171.771 81.1996C161.436 79.1471 160.043 77.6811 157.917 67.3456C157.624 65.9529 156.451 65 155.058 65C153.666 65 152.419 66.0262 152.2 67.3456C150.147 77.6811 148.681 79.0738 138.346 81.1996C136.953 81.4928 136 82.6656 136 84.0583C136 85.451 136.953 86.6971 138.346 86.917Z" fill="#FFBA21"/><path fill-rule="evenodd" clip-rule="evenodd" d="M151.216 67.1647C151.528 65.3456 153.209 64 155.058 64C156.931 64 158.506 65.291 158.896 67.1396L158.897 67.1442C159.97 72.3634 160.812 75.0036 162.474 76.6733C164.132 78.3395 166.751 79.1832 171.966 80.2187L171.988 80.2234C173.73 80.6106 175.117 82.1624 175.117 84.0583C175.117 85.9309 173.826 87.5064 171.977 87.8956L171.972 87.8965C166.753 88.97 164.113 89.8124 162.443 91.4742C160.779 93.1305 159.935 95.7455 158.901 100.948C158.588 102.866 156.883 104.117 155.058 104.117C153.186 104.117 151.61 102.826 151.221 100.977L151.22 100.972C150.147 95.7532 149.304 93.1131 147.642 91.4433C145.986 89.779 143.371 88.9353 138.169 87.9014C136.25 87.5877 135 85.8826 135 84.0583C135 82.1857 136.291 80.6102 138.14 80.221L138.144 80.22L138.144 80.2201C143.363 79.1466 146.004 78.3042 147.673 76.6424C149.338 74.9857 150.182 72.3698 151.216 67.1647ZM155.058 66C154.128 66 153.321 66.6987 153.186 67.51C153.184 67.5202 153.182 67.5303 153.18 67.5404C152.163 72.6616 151.248 75.9066 149.084 78.06C146.924 80.2096 143.664 81.1265 138.55 82.1786C137.614 82.3765 137 83.1461 137 84.0583C137 85.0128 137.646 85.7942 138.502 85.9293C138.515 85.9313 138.528 85.9336 138.54 85.9362C143.662 86.9532 146.907 87.8687 149.06 90.0325C151.21 92.1923 152.126 95.4522 153.179 100.567C153.376 101.503 154.146 102.117 155.058 102.117C156.013 102.117 156.794 101.47 156.929 100.615C156.931 100.602 156.934 100.589 156.936 100.576C157.953 95.455 158.869 92.21 161.032 90.0566C163.192 87.9071 166.452 86.9902 171.567 85.9381C172.503 85.7403 173.117 84.9706 173.117 84.0583C173.117 83.1721 172.455 82.3808 171.564 82.178C166.45 81.162 163.208 80.2462 161.057 78.0841C158.907 75.9243 157.99 72.6645 156.938 67.5499C156.74 66.614 155.971 66 155.058 66Z" fill="#F8A907"/></g><defs><filter id="e" x="233.712" y="244.098" width="206.789" height="139.239" filterUnits="userSpaceOnUse" color-interpolation-filters="sRGB"><feFlood flood-opacity="0" result="BackgroundImageFix"/><feColorMatrix in="SourceAlpha" values="0 0 0 0 0 0 0 0 0 0 0 0 0 0 0 0 0 0 127 0" result="hardAlpha"/><feOffset dy="4"/><feGaussianBlur stdDeviation="2"/><feComposite in2="hardAlpha" operator="out"/><feColorMatrix values="0 0 0 0 1 0 0 0 0 0.179167 0 0 0 0 0.179167 0 0 0 0.25 0"/><feBlend in2="BackgroundImageFix" result="effect1_dropShadow_9050_97817"/><feBlend in="SourceGraphic" in2="effect1_dropShadow_9050_97817" result="shape"/></filter><clipPath id="a"><rect width="650" height="480" fill="white"/></clipPath><clipPath id="b"><rect width="268.611" height="433.625" fill="white" transform="translate(206.879 -20) rotate(3.81874)"/></clipPath></defs></svg>