<svg width="48" height="48" viewBox="0 0 48 48" fill="none" xmlns="http://www.w3.org/2000/svg">
<path d="M29.2961 21.3349C29.0485 22.555 27.8586 23.3434 26.6386 23.0957C25.4185 22.8481 24.6301 21.6583 24.8778 20.4382C25.1254 19.2181 26.3152 18.4297 27.5353 18.6774C28.7554 18.925 29.5437 20.1148 29.2961 21.3349Z" fill="#FF5757"/>
<path d="M35.5574 17.5779C35.3098 18.798 34.12 19.5863 32.8999 19.3387C31.6798 19.0911 30.8914 17.9013 31.1391 16.6812C31.3867 15.4611 32.5765 14.6727 33.7966 14.9204C35.0167 15.168 35.8051 16.3578 35.5574 17.5779Z" fill="#FF5757"/>
<path d="M21.1095 17.3312L22.7969 9.01769L39.9332 12.4957L36.4552 29.6321L29.6062 28.242L31.5136 30.6914L37.91 31.9896C37.9784 32.0035 38.0451 31.9593 38.059 31.8909L42.2907 11.0408C42.3046 10.9725 42.2604 10.9058 42.1921 10.8919L21.342 6.66014C21.2736 6.64627 21.207 6.69044 21.1931 6.75881L19.4736 15.2305L21.1095 17.3312Z" fill="black"/>
<path fill-rule="evenodd" clip-rule="evenodd" d="M17.7413 19.358L6.91491 27.9573L15.3884 38.8383L26.2148 30.2391L17.7413 19.358ZM18.1597 16.6061C18.1169 16.551 18.0379 16.5416 17.9832 16.585L4.18948 27.5412C4.13485 27.5846 4.12531 27.6644 4.16818 27.7194L14.97 41.5903C15.0129 41.6453 15.0919 41.6548 15.1465 41.6114L28.9403 30.6552C28.9949 30.6118 29.0044 30.532 28.9616 30.477L18.1597 16.6061Z" fill="black"/>
<path d="M18.9566 29.3642C18.8563 30.4413 17.9027 31.2247 16.8266 31.1141C15.7506 31.0035 14.9595 30.0407 15.0598 28.9636C15.1601 27.8865 16.1137 27.1031 17.1898 27.2137C18.2658 27.3243 19.0569 28.2871 18.9566 29.3642Z" fill="black"/>
</svg>
