<svg width="48" height="48" viewBox="0 0 48 48" fill="none" xmlns="http://www.w3.org/2000/svg">
<ellipse cx="30.821" cy="21.221" rx="3.53684" ry="3.53684" fill="#FF5757"/>
<path d="M16.6736 24.6315V21.8526L13.8946 21.8526V19.8315H16.6736V17.0526H18.6947V19.8315H21.4736V21.8526H18.6947V24.6315H16.6736Z" fill="black"/>
<path fill-rule="evenodd" clip-rule="evenodd" d="M25.6419 8.84204V11.9999H38.9133C39.5521 11.9999 40.0903 12.4767 40.1673 13.1108L42.9301 35.8584C42.9393 35.9336 42.8806 35.9999 42.8047 35.9999H32.1167C32.066 35.9999 32.0201 35.9695 32.0004 35.9227L29.5008 29.9999H18.4991L15.9996 35.9227C15.9798 35.9695 15.934 35.9999 15.8832 35.9999H5.19518C5.11938 35.9999 5.06065 35.9336 5.06979 35.8584L7.83265 13.1108C7.90966 12.4767 8.44787 11.9999 9.08659 11.9999H23.6209V8.84204H25.6419ZM17.1584 27.9789H30.8415L33.3737 33.9789H40.666L38.2419 14.021H9.75801L7.33397 33.9789H14.6263L17.1584 27.9789Z" fill="black"/>
</svg>
