<svg width="48" height="48" viewBox="0 0 48 48" fill="none" xmlns="http://www.w3.org/2000/svg">
<path fill-rule="evenodd" clip-rule="evenodd" d="M36.3789 30.7669V36.1262C36.3789 36.196 36.3223 36.2526 36.2526 36.2526H6.18943C6.11966 36.2526 6.06311 36.196 6.06311 36.1262V12.3789C6.06311 12.3091 6.11966 12.2526 6.18943 12.2526H36.2526C36.3223 12.2526 36.3789 12.3091 36.3789 12.3789V18.2435L43.1998 16.2947V32.7157L36.3789 30.7669ZM8.08416 34.2315V14.2736H34.3578V34.2315H8.08416ZM36.3789 28.665L41.1788 30.0364V18.9741L36.3789 20.3454V28.665Z" fill="black"/>
<path d="M26.5263 24L18.9474 29.0526L18.9474 18.9474L26.5263 24Z" fill="#FF5757"/>
</svg>
