<svg width="48" height="48" viewBox="0 0 48 48" fill="none" xmlns="http://www.w3.org/2000/svg">
<path d="M14.0211 26.6156C14.7502 29.3805 15.9159 32.3505 20.9685 31.5439C26.3195 30.6897 26.1287 27.8097 26.0211 24.9523C26.0211 24.9523 20.4936 25.7424 19.7053 25.8597C16.1291 26.392 14.0211 26.6156 14.0211 26.6156Z" fill="#FF5757"/>
<path d="M28.4695 36.5149C28.9749 36.7752 29.5135 36.9886 30.0812 37.1479C34.4617 38.3776 39.0379 35.9609 40.4925 31.6498L44.5894 19.5066L33.8484 16.4915L34.0025 18.6027L42.0326 20.8568L38.606 31.0133C37.4902 34.3205 33.9797 36.1743 30.6193 35.231C30.5026 35.1983 30.3875 35.1625 30.2741 35.1239C29.7168 35.6372 29.1133 36.1033 28.4695 36.5149Z" fill="#040404"/>
<path fill-rule="evenodd" clip-rule="evenodd" d="M4.42102 12.9054L7.36884 27.5175C8.71415 34.1861 15.021 38.6528 21.7581 37.7085C28.4952 36.7641 33.3309 30.7356 32.7909 23.9541L31.6078 9.09467L4.42102 12.9054ZM6.7907 14.5837L9.32051 27.1237C10.4575 32.7598 15.7878 36.5349 21.4817 35.7368C27.1756 34.9386 31.2626 29.8435 30.8062 24.1121L29.7908 11.3598L6.7907 14.5837Z" fill="#040404"/>
<path d="M19.8766 19.0295L22.3071 18.4945L22.8421 20.925L20.4116 21.46L19.8766 19.0295Z" fill="#040404"/>
<path d="M13.6547 20.2806L16.0838 19.7388L16.6255 22.1679L14.1965 22.7096L13.6547 20.2806Z" fill="#040404"/>
</svg>
