<svg width="48" height="48" viewBox="0 0 48 48" fill="none" xmlns="http://www.w3.org/2000/svg">
<path d="M20.9943 19.6093H18.5551V22.0485H20.9943V19.6093Z" fill="black"/>
<path d="M19.6758 30.4349L22.2912 28.1464H25.7088L28.3242 30.4349L26.9934 31.9559L24 29.3368L21.0067 31.9559L19.6758 30.4349Z" fill="black"/>
<path d="M27.0056 19.6093H29.4448V22.0485H27.0056V19.6093Z" fill="black"/>
<path fill-rule="evenodd" clip-rule="evenodd" d="M15.4628 9.86572C15.5843 9.85698 15.7071 9.85254 15.8309 9.85254H15.4628C15.297 9.85256 15.1312 9.85699 14.9676 9.86572C14.4462 9.89354 13.9364 9.96502 13.4417 10.0766C9.36247 10.9966 6.3158 14.6423 6.3158 18.9995V24.2438L11.1312 24.3722L11.3435 30.0103C11.4217 32.0882 12.2739 34.0618 13.7328 35.5436C19.0794 40.974 27.7595 41.2152 33.3994 36.09L33.8326 35.6963C35.5611 34.1255 36.5847 31.925 36.6726 29.591L36.8634 24.5226H41.0742V24.4877H41.6842V18.9995C41.6842 14.6423 38.6375 10.9966 34.5583 10.0766C34.0636 9.96501 33.5538 9.89353 33.0324 9.86571C32.8687 9.85698 32.704 9.85256 32.5382 9.85254L32.5372 9.86571C32.4157 9.85698 32.293 9.85254 32.1692 9.85254H17.4839L13.4417 10.0766L15.4628 9.85254V9.86572ZM34.917 22.5015L34.9183 22.4667H39.6632V18.9995C39.6632 15.4869 37.1216 12.5679 33.7772 11.9811L32.3923 11.8816C32.319 11.8763 32.2446 11.8736 32.1692 11.8736H15.8309C15.7554 11.8736 15.681 11.8763 15.6077 11.8816L14.2226 11.9811C10.8783 12.568 8.33685 15.487 8.33685 18.9995V22.2576H13.2326V14.7309H15.2537V24.2787H13.1501L13.3631 29.9342C13.4224 31.5082 14.0679 33.0032 15.173 34.1256C19.7585 38.7831 27.2031 38.9899 32.0402 34.5942L32.4733 34.2006C33.7999 32.995 34.5855 31.3063 34.6529 29.515L34.8409 24.5226H32.7461V14.9749H34.7671V22.5015H34.917Z" fill="black"/>
<path d="M20.9684 24.5052H27.0664L25.8468 28.1641H22.188L20.9684 24.5052Z" fill="#FF5757"/>
</svg>
