<svg width="48" height="48" viewBox="0 0 48 48" fill="none" xmlns="http://www.w3.org/2000/svg">
<path fill-rule="evenodd" clip-rule="evenodd" d="M17.0195 16.5001H9.47381L9.47393 34.7368H39.0315L39.0313 16.5001H30.9805L28.4446 12.1263H19.5555L17.0195 16.5001ZM18.3911 10.1053H29.6089L32.1449 14.479H41.0524L41.0525 36.7579H7.45288L7.45276 14.479H15.8551L18.3911 10.1053Z" fill="black"/>
<path fill-rule="evenodd" clip-rule="evenodd" d="M23.9999 29.3053C26.1393 29.3053 27.8736 27.571 27.8736 25.4316C27.8736 23.2922 26.1393 21.5579 23.9999 21.5579C21.8605 21.5579 20.1262 23.2922 20.1262 25.4316C20.1262 27.571 21.8605 29.3053 23.9999 29.3053ZM23.9999 31.3263C27.2555 31.3263 29.8946 28.6872 29.8946 25.4316C29.8946 22.176 27.2555 19.5368 23.9999 19.5368C20.7443 19.5368 18.1052 22.176 18.1052 25.4316C18.1052 28.6872 20.7443 31.3263 23.9999 31.3263Z" fill="black"/>
<rect x="31.579" y="18.9474" width="5.05263" height="3.78947" fill="#FF5757"/>
</svg>
