<svg width="48" height="48" viewBox="0 0 48 48" fill="none" xmlns="http://www.w3.org/2000/svg">
<path fill-rule="evenodd" clip-rule="evenodd" d="M25.5315 16.7777L26.1202 16.031C26.9434 14.9868 28.2289 14.3132 29.6824 14.3132H30.9473V12.25H29.6824C28.3264 12.25 27.0664 12.6561 26.0203 13.352C25.4413 13.737 24.9279 14.2108 24.5 14.7536C24.072 14.2108 23.5586 13.737 22.9797 13.352C21.9336 12.6561 20.6736 12.25 19.3175 12.25H7.73682V37.7542H20.604C21.2401 37.7542 22.2365 37.7542 23.105 38.2973L23.1132 38.3024C23.3776 38.4689 23.63 38.686 23.8566 38.9691C23.9781 39.121 24.0923 39.2918 24.1969 39.4841C24.3149 39.7009 24.6851 39.7009 24.8031 39.4841C24.9077 39.2918 25.0218 39.121 25.1434 38.9691C25.37 38.686 25.6224 38.4689 25.8868 38.3024L25.8949 38.2973C26.7635 37.7542 27.7598 37.7542 28.3959 37.7542H41.2631V12.25H36.1052V14.3132H39.2V35.691H28.3959L28.3218 35.6909C27.7971 35.6895 26.6819 35.6866 25.5315 36.1684V16.7777ZM23.4683 16.7775L22.8798 16.031C22.0566 14.9868 20.771 14.3132 19.3175 14.3132H9.79997V35.691H20.604L20.6782 35.6909C21.2028 35.6895 22.318 35.6866 23.4683 36.1683V16.7775Z" fill="black"/>
<path d="M30.9473 12.25H36.1052V22.5658L33.5262 20.8465L30.9473 22.5658V12.25Z" fill="#FF5757"/>
</svg>
