<svg width="48" height="48" viewBox="0 0 48 48" fill="none" xmlns="http://www.w3.org/2000/svg">
<path d="M18.8542 37.8356C20.3766 37.4032 21.7426 36.6209 22.7051 35.312C24.2255 33.2444 24.7069 31.5546 24.8177 30.4056L25.9315 29.0526H30.9476C33.3893 29.0526 35.3687 31.032 35.3687 33.4737C35.3687 35.9153 33.3893 37.8947 30.9476 37.8947H19.5792C19.3323 37.8947 19.0901 37.8745 18.8542 37.8356Z" fill="#FF5757"/>
<path fill-rule="evenodd" clip-rule="evenodd" d="M39.2978 12.817L34.134 7.95337L17.8796 23.451C16.6679 23.4782 14.8352 23.9505 12.8852 26.0085C11.3815 27.5956 11.6869 29.9551 11.9199 31.023C12.3427 32.9599 11.0958 34.5245 9.82398 35.5703L9.80171 35.5886C9.69333 35.6772 9.58484 35.762 9.47725 35.8429C9.28803 35.9853 9.10162 36.1157 8.92354 36.2337C8.44525 36.5506 8.51195 37.3253 9.06828 37.4655C9.31124 37.5267 9.578 37.5906 9.86491 37.6546C9.9918 37.6829 10.1226 37.7112 10.2571 37.7393L10.2929 37.7468C13.8626 38.4882 19.9435 39.0668 22.7047 35.312C24.2247 33.245 24.7063 31.5556 24.8172 30.4066L39.2978 12.817ZM34.1425 10.7377L22.7817 21.5696L26.5514 25.1202L36.5359 12.992L34.1425 10.7377ZM20.0221 24.2007L21.3168 22.9663L25.264 26.684L24.1261 28.0662L20.0221 24.2007ZM17.6261 25.4923C17.9231 25.458 18.1667 25.4698 18.3413 25.4919L22.8221 29.7373C22.827 29.8833 22.8227 30.0696 22.7968 30.2938C22.708 31.0635 22.3526 32.3793 21.0765 34.1147C20.0611 35.4955 18.2213 36.158 15.8345 36.2584C14.6146 36.3098 13.3739 36.2069 12.2502 36.0424C12.4472 35.822 12.6371 35.5879 12.8146 35.3401C13.6692 34.1467 14.3135 32.5119 13.8945 30.592C13.8008 30.1627 13.7072 29.5289 13.7643 28.8906C13.8208 28.2595 14.0098 27.7601 14.3523 27.3986C15.7433 25.9305 16.9265 25.5732 17.6261 25.4923Z" fill="black"/>
</svg>
